<svg class="marks" width="904" height="263" version="1.1" xmlns="http://www.w3.org/2000/svg" xmlns:xlink="http://www.w3.org/1999/xlink"><g transform="translate(52,12)"><g class="mark-group"><g transform="translate(0,0)"><rect class="background" width="1" height="1" style="fill: none;"></rect><g class="mark-group root"><g transform="translate(0,0)"><rect class="background" width="651" height="200" style="fill: none;"></rect><g class="mark-group"><g transform="translate(0,0)"><rect class="background" width="0" height="0" style="pointer-events: none; fill: none;"></rect><g class="mark-rule" style="pointer-events: none;"><line transform="translate(0,200.5)" x2="651" y2="0" style="fill: none; stroke: #000; stroke-width: 1; stroke-opacity: 0.15; opacity: 1;"></line><line transform="translate(0,182.5)" x2="651" y2="0" style="fill: none; stroke: #000; stroke-width: 1; stroke-opacity: 0.15; opacity: 1;"></line><line transform="translate(0,164.5)" x2="651" y2="0" style="fill: none; stroke: #000; stroke-width: 1; stroke-opacity: 0.15; opacity: 1;"></line><line transform="translate(0,145.5)" x2="651" y2="0" style="fill: none; stroke: #000; stroke-width: 1; stroke-opacity: 0.15; opacity: 1;"></line><line transform="translate(0,127.5)" x2="651" y2="0" style="fill: none; stroke: #000; stroke-width: 1; stroke-opacity: 0.15; opacity: 1;"></line><line transform="translate(0,109.5)" x2="651" y2="0" style="fill: none; stroke: #000; stroke-width: 1; stroke-opacity: 0.15; opacity: 1;"></line><line transform="translate(0,91.5)" x2="651" y2="0" style="fill: none; stroke: #000; stroke-width: 1; stroke-opacity: 0.15; opacity: 1;"></line><line transform="translate(0,73.5)" x2="651" y2="0" style="fill: none; stroke: #000; stroke-width: 1; stroke-opacity: 0.15; opacity: 1;"></line><line transform="translate(0,55.5)" x2="651" y2="0" style="fill: none; stroke: #000; stroke-width: 1; stroke-opacity: 0.15; opacity: 1;"></line><line transform="translate(0,36.5)" x2="651" y2="0" style="fill: none; stroke: #000; stroke-width: 1; stroke-opacity: 0.15; opacity: 1;"></line><line transform="translate(0,18.5)" x2="651" y2="0" style="fill: none; stroke: #000; stroke-width: 1; stroke-opacity: 0.15; opacity: 1;"></line><line transform="translate(0,0.5)" x2="651" y2="0" style="fill: none; stroke: #000; stroke-width: 1; stroke-opacity: 0.15; opacity: 1;"></line></g><g class="mark-rule" style="pointer-events: none;"><line transform="translate(-6,200.5)" x2="6" y2="0" style="fill: none; stroke: #000; stroke-width: 1; opacity: 1;"></line><line transform="translate(-6,182.5)" x2="6" y2="0" style="fill: none; stroke: #000; stroke-width: 1; opacity: 1;"></line><line transform="translate(-6,164.5)" x2="6" y2="0" style="fill: none; stroke: #000; stroke-width: 1; opacity: 1;"></line><line transform="translate(-6,145.5)" x2="6" y2="0" style="fill: none; stroke: #000; stroke-width: 1; opacity: 1;"></line><line transform="translate(-6,127.5)" x2="6" y2="0" style="fill: none; stroke: #000; stroke-width: 1; opacity: 1;"></line><line transform="translate(-6,109.5)" x2="6" y2="0" style="fill: none; stroke: #000; stroke-width: 1; opacity: 1;"></line><line transform="translate(-6,91.5)" x2="6" y2="0" style="fill: none; stroke: #000; stroke-width: 1; opacity: 1;"></line><line transform="translate(-6,73.5)" x2="6" y2="0" style="fill: none; stroke: #000; stroke-width: 1; opacity: 1;"></line><line transform="translate(-6,55.5)" x2="6" y2="0" style="fill: none; stroke: #000; stroke-width: 1; opacity: 1;"></line><line transform="translate(-6,36.5)" x2="6" y2="0" style="fill: none; stroke: #000; stroke-width: 1; opacity: 1;"></line><line transform="translate(-6,18.5)" x2="6" y2="0" style="fill: none; stroke: #000; stroke-width: 1; opacity: 1;"></line><line transform="translate(-6,0.5)" x2="6" y2="0" style="fill: none; stroke: #000; stroke-width: 1; opacity: 1;"></line></g><g class="mark-rule" style="pointer-events: none;"></g><g class="mark-text"><text text-anchor="end" transform="translate(-9,203.5)" style="font: 11px sans-serif; fill: #000; opacity: 1;">0</text><text text-anchor="end" transform="translate(-9,185.5)" style="font: 11px sans-serif; fill: #000; opacity: 1;">10</text><text text-anchor="end" transform="translate(-9,167.5)" style="font: 11px sans-serif; fill: #000; opacity: 1;">20</text><text text-anchor="end" transform="translate(-9,148.5)" style="font: 11px sans-serif; fill: #000; opacity: 1;">30</text><text text-anchor="end" transform="translate(-9,130.5)" style="font: 11px sans-serif; fill: #000; opacity: 1;">40</text><text text-anchor="end" transform="translate(-9,112.5)" style="font: 11px sans-serif; fill: #000; opacity: 1;">50</text><text text-anchor="end" transform="translate(-9,94.5)" style="font: 11px sans-serif; fill: #000; opacity: 1;">60</text><text text-anchor="end" transform="translate(-9,76.5)" style="font: 11px sans-serif; fill: #000; opacity: 1;">70</text><text text-anchor="end" transform="translate(-9,58.5)" style="font: 11px sans-serif; fill: #000; opacity: 1;">80</text><text text-anchor="end" transform="translate(-9,39.5)" style="font: 11px sans-serif; fill: #000; opacity: 1;">90</text><text text-anchor="end" transform="translate(-9,21.5)" style="font: 11px sans-serif; fill: #000; opacity: 1;">100</text><text text-anchor="end" transform="translate(-9,3.5)" style="font: 11px sans-serif; fill: #000; opacity: 1;">110</text></g><g class="mark-path" style="pointer-events: none;"><path transform="translate(0.5,0.5)" d="M-6,0H0V200H-6" style="fill: none; stroke: #000; stroke-width: 1;"></path></g><g class="mark-text"><text text-anchor="middle" transform="translate(-40,100) rotate(-90) translate(0,3)" style="font: bold 11px sans-serif; fill: #000;">score</text></g></g></g><g class="mark-rect marks"><rect transform="translate(11,166)" width="20" height="34" style="fill: #ff7f0e; opacity: 0.7;"></rect><rect transform="translate(11,186)" width="20" height="14" style="fill: #1f77b4; opacity: 0.7;"></rect><rect transform="translate(11,189)" width="20" height="11" style="fill: #2ca02c; opacity: 0.7;"></rect><rect transform="translate(11,145)" width="20" height="55" style="fill: #d62728; opacity: 0.7;"></rect><rect transform="translate(11,155)" width="20" height="45" style="fill: #9467bd; opacity: 0.7;"></rect><rect transform="translate(11,90)" width="20" height="110" style="fill: #8c564b; opacity: 0.7;"></rect><rect transform="translate(32,151)" width="20" height="49" style="fill: #ff7f0e; opacity: 0.7;"></rect><rect transform="translate(32,182)" width="20" height="18" style="fill: #1f77b4; opacity: 0.7;"></rect><rect transform="translate(32,184)" width="20" height="16" style="fill: #2ca02c; opacity: 0.7;"></rect><rect transform="translate(32,76)" width="20" height="124" style="fill: #d62728; opacity: 0.7;"></rect><rect transform="translate(32,103)" width="20" height="97" style="fill: #9467bd; opacity: 0.7;"></rect><rect transform="translate(263,161)" width="20" height="39" style="fill: #ff7f0e; opacity: 0.7;"></rect><rect transform="translate(263,182)" width="20" height="18" style="fill: #1f77b4; opacity: 0.7;"></rect><rect transform="translate(263,184)" width="20" height="16" style="fill: #2ca02c; opacity: 0.7;"></rect><rect transform="translate(263,107)" width="20" height="93" style="fill: #d62728; opacity: 0.7;"></rect><rect transform="translate(263,105)" width="20" height="95" style="fill: #9467bd; opacity: 0.7;"></rect><rect transform="translate(452,150)" width="20" height="50" style="fill: #ff7f0e; opacity: 0.7;"></rect><rect transform="translate(452,181)" width="20" height="19" style="fill: #1f77b4; opacity: 0.7;"></rect><rect transform="translate(452,184)" width="20" height="16" style="fill: #2ca02c; opacity: 0.7;"></rect><rect transform="translate(452,80)" width="20" height="120" style="fill: #d62728; opacity: 0.7;"></rect><rect transform="translate(452,106)" width="20" height="94" style="fill: #9467bd; opacity: 0.7;"></rect><rect transform="translate(515,156)" width="20" height="44" style="fill: #ff7f0e; opacity: 0.7;"></rect><rect transform="translate(515,183)" width="20" height="17" style="fill: #1f77b4; opacity: 0.7;"></rect><rect transform="translate(515,184)" width="20" height="16" style="fill: #2ca02c; opacity: 0.7;"></rect><rect transform="translate(515,85)" width="20" height="115" style="fill: #d62728; opacity: 0.7;"></rect><rect transform="translate(515,101)" width="20" height="99" style="fill: #9467bd; opacity: 0.7;"></rect><rect transform="translate(536,151)" width="20" height="49" style="fill: #ff7f0e; opacity: 0.7;"></rect><rect transform="translate(536,183)" width="20" height="17" style="fill: #1f77b4; opacity: 0.7;"></rect><rect transform="translate(536,185)" width="20" height="15" style="fill: #2ca02c; opacity: 0.7;"></rect><rect transform="translate(536,77)" width="20" height="123" style="fill: #d62728; opacity: 0.7;"></rect><rect transform="translate(536,123)" width="20" height="77" style="fill: #9467bd; opacity: 0.7;"></rect><rect transform="translate(557,158)" width="20" height="42" style="fill: #ff7f0e; opacity: 0.7;"></rect><rect transform="translate(557,185)" width="20" height="15" style="fill: #1f77b4; opacity: 0.7;"></rect><rect transform="translate(557,187)" width="20" height="13" style="fill: #2ca02c; opacity: 0.7;"></rect><rect transform="translate(557,102)" width="20" height="98" style="fill: #d62728; opacity: 0.7;"></rect><rect transform="translate(557,136)" width="20" height="64" style="fill: #9467bd; opacity: 0.7;"></rect><rect transform="translate(578,160)" width="20" height="40" style="fill: #ff7f0e; opacity: 0.7;"></rect><rect transform="translate(578,186)" width="20" height="14" style="fill: #1f77b4; opacity: 0.7;"></rect><rect transform="translate(578,185)" width="20" height="15" style="fill: #2ca02c; opacity: 0.7;"></rect><rect transform="translate(578,106)" width="20" height="94" style="fill: #d62728; opacity: 0.7;"></rect><rect transform="translate(578,150)" width="20" height="50" style="fill: #9467bd; opacity: 0.7;"></rect><rect transform="translate(599,166)" width="20" height="34" style="fill: #ff7f0e; opacity: 0.7;"></rect><rect transform="translate(599,187)" width="20" height="13" style="fill: #1f77b4; opacity: 0.7;"></rect><rect transform="translate(599,188)" width="20" height="12" style="fill: #2ca02c; opacity: 0.7;"></rect><rect transform="translate(599,145)" width="20" height="55" style="fill: #d62728; opacity: 0.7;"></rect><rect transform="translate(599,156)" width="20" height="44" style="fill: #9467bd; opacity: 0.7;"></rect><rect transform="translate(620,166)" width="20" height="34" style="fill: #ff7f0e; opacity: 0.7;"></rect><rect transform="translate(620,186)" width="20" height="14" style="fill: #1f77b4; opacity: 0.7;"></rect><rect transform="translate(620,189)" width="20" height="11" style="fill: #2ca02c; opacity: 0.7;"></rect><rect transform="translate(620,139)" width="20" height="61" style="fill: #d62728; opacity: 0.7;"></rect><rect transform="translate(620,155)" width="20" height="45" style="fill: #9467bd; opacity: 0.7;"></rect><rect transform="translate(53,167)" width="20" height="33" style="fill: #ff7f0e; opacity: 0.7;"></rect><rect transform="translate(53,186)" width="20" height="14" style="fill: #1f77b4; opacity: 0.7;"></rect><rect transform="translate(53,187)" width="20" height="13" style="fill: #2ca02c; opacity: 0.7;"></rect><rect transform="translate(53,145)" width="20" height="55" style="fill: #d62728; opacity: 0.7;"></rect><rect transform="translate(53,123)" width="20" height="77" style="fill: #9467bd; opacity: 0.7;"></rect><rect transform="translate(74,162)" width="20" height="38" style="fill: #ff7f0e; opacity: 0.7;"></rect><rect transform="translate(74,183)" width="20" height="17" style="fill: #1f77b4; opacity: 0.7;"></rect><rect transform="translate(74,185)" width="20" height="15" style="fill: #2ca02c; opacity: 0.7;"></rect><rect transform="translate(74,119)" width="20" height="81" style="fill: #d62728; opacity: 0.7;"></rect><rect transform="translate(74,149)" width="20" height="51" style="fill: #9467bd; opacity: 0.7;"></rect><rect transform="translate(95,166)" width="20" height="34" style="fill: #ff7f0e; opacity: 0.7;"></rect><rect transform="translate(95,186)" width="20" height="14" style="fill: #1f77b4; opacity: 0.7;"></rect><rect transform="translate(95,188)" width="20" height="12" style="fill: #2ca02c; opacity: 0.7;"></rect><rect transform="translate(95,140)" width="20" height="60" style="fill: #d62728; opacity: 0.7;"></rect><rect transform="translate(95,155)" width="20" height="45" style="fill: #9467bd; opacity: 0.7;"></rect><rect transform="translate(116,165)" width="20" height="35" style="fill: #ff7f0e; opacity: 0.7;"></rect><rect transform="translate(116,185)" width="20" height="15" style="fill: #1f77b4; opacity: 0.7;"></rect><rect transform="translate(116,187)" width="20" height="13" style="fill: #2ca02c; opacity: 0.7;"></rect><rect transform="translate(116,140)" width="20" height="60" style="fill: #d62728; opacity: 0.7;"></rect><rect transform="translate(116,140)" width="20" height="60" style="fill: #9467bd; opacity: 0.7;"></rect><rect transform="translate(32,151)" width="20" height="49" style="fill: #ff7f0e; opacity: 0.7;"></rect><rect transform="translate(32,182)" width="20" height="18" style="fill: #1f77b4; opacity: 0.7;"></rect><rect transform="translate(32,184)" width="20" height="16" style="fill: #2ca02c; opacity: 0.7;"></rect><rect transform="translate(32,76)" width="20" height="124" style="fill: #d62728; opacity: 0.7;"></rect><rect transform="translate(32,103)" width="20" height="97" style="fill: #9467bd; opacity: 0.7;"></rect><rect transform="translate(137,151)" width="20" height="49" style="fill: #ff7f0e; opacity: 0.7;"></rect><rect transform="translate(137,181)" width="20" height="19" style="fill: #1f77b4; opacity: 0.7;"></rect><rect transform="translate(137,184)" width="20" height="16" style="fill: #2ca02c; opacity: 0.7;"></rect><rect transform="translate(137,76)" width="20" height="124" style="fill: #d62728; opacity: 0.7;"></rect><rect transform="translate(137,105)" width="20" height="95" style="fill: #9467bd; opacity: 0.7;"></rect><rect transform="translate(158,150)" width="20" height="50" style="fill: #ff7f0e; opacity: 0.7;"></rect><rect transform="translate(158,177)" width="20" height="23" style="fill: #1f77b4; opacity: 0.7;"></rect><rect transform="translate(158,179)" width="20" height="21" style="fill: #2ca02c; opacity: 0.7;"></rect><rect transform="translate(158,77)" width="20" height="123" style="fill: #d62728; opacity: 0.7;"></rect><rect transform="translate(158,105)" width="20" height="95" style="fill: #9467bd; opacity: 0.7;"></rect><rect transform="translate(179,145)" width="20" height="55" style="fill: #ff7f0e; opacity: 0.7;"></rect><rect transform="translate(179,169)" width="20" height="31" style="fill: #1f77b4; opacity: 0.7;"></rect><rect transform="translate(179,171)" width="20" height="29" style="fill: #2ca02c; opacity: 0.7;"></rect><rect transform="translate(179,76)" width="20" height="124" style="fill: #d62728; opacity: 0.7;"></rect><rect transform="translate(179,105)" width="20" height="95" style="fill: #9467bd; opacity: 0.7;"></rect><rect transform="translate(200,131)" width="20" height="69" style="fill: #ff7f0e; opacity: 0.7;"></rect><rect transform="translate(200,149)" width="20" height="51" style="fill: #1f77b4; opacity: 0.7;"></rect><rect transform="translate(200,151)" width="20" height="49" style="fill: #2ca02c; opacity: 0.7;"></rect><rect transform="translate(200,76)" width="20" height="124" style="fill: #d62728; opacity: 0.7;"></rect><rect transform="translate(200,96)" width="20" height="104" style="fill: #9467bd; opacity: 0.7;"></rect><rect transform="translate(221,103)" width="20" height="97" style="fill: #ff7f0e; opacity: 0.7;"></rect><rect transform="translate(221,115)" width="20" height="85" style="fill: #1f77b4; opacity: 0.7;"></rect><rect transform="translate(221,117)" width="20" height="83" style="fill: #2ca02c; opacity: 0.7;"></rect><rect transform="translate(221,76)" width="20" height="124" style="fill: #d62728; opacity: 0.7;"></rect><rect transform="translate(221,69)" width="20" height="131" style="fill: #9467bd; opacity: 0.7;"></rect><rect transform="translate(242,65)" width="20" height="135" style="fill: #ff7f0e; opacity: 0.7;"></rect><rect transform="translate(242,74)" width="20" height="126" style="fill: #1f77b4; opacity: 0.7;"></rect><rect transform="translate(242,74)" width="20" height="126" style="fill: #2ca02c; opacity: 0.7;"></rect><rect transform="translate(242,73)" width="20" height="127" style="fill: #d62728; opacity: 0.7;"></rect><rect transform="translate(242,36)" width="20" height="164" style="fill: #9467bd; opacity: 0.7;"></rect><rect transform="translate(284,36)" width="20" height="164" style="fill: #ff7f0e; opacity: 0.7;"></rect><rect transform="translate(284,36)" width="20" height="164" style="fill: #1f77b4; opacity: 0.7;"></rect><rect transform="translate(284,73)" width="20" height="127" style="fill: #d62728; opacity: 0.7;"></rect><rect transform="translate(284,15)" width="20" height="185" style="fill: #9467bd; opacity: 0.7;"></rect><rect transform="translate(263,161)" width="20" height="39" style="fill: #ff7f0e; opacity: 0.7;"></rect><rect transform="translate(263,182)" width="20" height="18" style="fill: #1f77b4; opacity: 0.7;"></rect><rect transform="translate(263,184)" width="20" height="16" style="fill: #2ca02c; opacity: 0.7;"></rect><rect transform="translate(263,107)" width="20" height="93" style="fill: #d62728; opacity: 0.7;"></rect><rect transform="translate(263,105)" width="20" height="95" style="fill: #9467bd; opacity: 0.7;"></rect><rect transform="translate(305,161)" width="20" height="39" style="fill: #ff7f0e; opacity: 0.7;"></rect><rect transform="translate(305,183)" width="20" height="17" style="fill: #1f77b4; opacity: 0.7;"></rect><rect transform="translate(305,107)" width="20" height="93" style="fill: #d62728; opacity: 0.7;"></rect><rect transform="translate(305,105)" width="20" height="95" style="fill: #9467bd; opacity: 0.7;"></rect><rect transform="translate(326,161)" width="20" height="39" style="fill: #ff7f0e; opacity: 0.7;"></rect><rect transform="translate(326,182)" width="20" height="18" style="fill: #1f77b4; opacity: 0.7;"></rect><rect transform="translate(326,107)" width="20" height="93" style="fill: #d62728; opacity: 0.7;"></rect><rect transform="translate(326,105)" width="20" height="95" style="fill: #9467bd; opacity: 0.7;"></rect><rect transform="translate(347,160)" width="20" height="40" style="fill: #ff7f0e; opacity: 0.7;"></rect><rect transform="translate(347,181)" width="20" height="19" style="fill: #1f77b4; opacity: 0.7;"></rect><rect transform="translate(347,107)" width="20" height="93" style="fill: #d62728; opacity: 0.7;"></rect><rect transform="translate(347,107)" width="20" height="93" style="fill: #9467bd; opacity: 0.7;"></rect><rect transform="translate(368,159)" width="20" height="41" style="fill: #ff7f0e; opacity: 0.7;"></rect><rect transform="translate(368,179)" width="20" height="21" style="fill: #1f77b4; opacity: 0.7;"></rect><rect transform="translate(368,105)" width="20" height="95" style="fill: #d62728; opacity: 0.7;"></rect><rect transform="translate(368,107)" width="20" height="93" style="fill: #9467bd; opacity: 0.7;"></rect><rect transform="translate(389,157)" width="20" height="43" style="fill: #ff7f0e; opacity: 0.7;"></rect><rect transform="translate(389,175)" width="20" height="25" style="fill: #1f77b4; opacity: 0.7;"></rect><rect transform="translate(389,107)" width="20" height="93" style="fill: #d62728; opacity: 0.7;"></rect><rect transform="translate(389,104)" width="20" height="96" style="fill: #9467bd; opacity: 0.7;"></rect><rect transform="translate(410,146)" width="20" height="54" style="fill: #ff7f0e; opacity: 0.7;"></rect><rect transform="translate(410,160)" width="20" height="40" style="fill: #1f77b4; opacity: 0.7;"></rect><rect transform="translate(410,102)" width="20" height="98" style="fill: #d62728; opacity: 0.7;"></rect><rect transform="translate(410,100)" width="20" height="100" style="fill: #9467bd; opacity: 0.7;"></rect><rect transform="translate(431,116)" width="20" height="84" style="fill: #ff7f0e; opacity: 0.7;"></rect><rect transform="translate(431,125)" width="20" height="75" style="fill: #1f77b4; opacity: 0.7;"></rect><rect transform="translate(431,89)" width="20" height="111" style="fill: #d62728; opacity: 0.7;"></rect><rect transform="translate(431,82)" width="20" height="118" style="fill: #9467bd; opacity: 0.7;"></rect><rect transform="translate(473,163)" width="20" height="37" style="fill: #ff7f0e; opacity: 0.7;"></rect><rect transform="translate(473,185)" width="20" height="15" style="fill: #1f77b4; opacity: 0.7;"></rect><rect transform="translate(473,187)" width="20" height="13" style="fill: #2ca02c; opacity: 0.7;"></rect><rect transform="translate(473,131)" width="20" height="69" style="fill: #d62728; opacity: 0.7;"></rect><rect transform="translate(473,138)" width="20" height="62" style="fill: #9467bd; opacity: 0.7;"></rect><rect transform="translate(494,157)" width="20" height="43" style="fill: #ff7f0e; opacity: 0.7;"></rect><rect transform="translate(494,183)" width="20" height="17" style="fill: #1f77b4; opacity: 0.7;"></rect><rect transform="translate(494,185)" width="20" height="15" style="fill: #2ca02c; opacity: 0.7;"></rect><rect transform="translate(494,102)" width="20" height="98" style="fill: #d62728; opacity: 0.7;"></rect><rect transform="translate(494,105)" width="20" height="95" style="fill: #9467bd; opacity: 0.7;"></rect></g><g class="mark-group"><g transform="translate(0,200)"><rect class="background" width="0" height="0" style="pointer-events: none; fill: none;"></rect><g class="mark-rule" style="pointer-events: none;"></g><g class="mark-rule" style="pointer-events: none;"><line transform="translate(21.5,0)" x2="0" y2="6" style="fill: none; stroke: #000; stroke-width: 1; opacity: 1;"></line><line transform="translate(42.5,0)" x2="0" y2="6" style="fill: none; stroke: #000; stroke-width: 1; opacity: 1;"></line><line transform="translate(63.5,0)" x2="0" y2="6" style="fill: none; stroke: #000; stroke-width: 1; opacity: 1;"></line><line transform="translate(84.5,0)" x2="0" y2="6" style="fill: none; stroke: #000; stroke-width: 1; opacity: 1;"></line><line transform="translate(105.5,0)" x2="0" y2="6" style="fill: none; stroke: #000; stroke-width: 1; opacity: 1;"></line><line transform="translate(126.5,0)" x2="0" y2="6" style="fill: none; stroke: #000; stroke-width: 1; opacity: 1;"></line><line transform="translate(147.5,0)" x2="0" y2="6" style="fill: none; stroke: #000; stroke-width: 1; opacity: 1;"></line><line transform="translate(168.5,0)" x2="0" y2="6" style="fill: none; stroke: #000; stroke-width: 1; opacity: 1;"></line><line transform="translate(189.5,0)" x2="0" y2="6" style="fill: none; stroke: #000; stroke-width: 1; opacity: 1;"></line><line transform="translate(210.5,0)" x2="0" y2="6" style="fill: none; stroke: #000; stroke-width: 1; opacity: 1;"></line><line transform="translate(231.5,0)" x2="0" y2="6" style="fill: none; stroke: #000; stroke-width: 1; opacity: 1;"></line><line transform="translate(252.5,0)" x2="0" y2="6" style="fill: none; stroke: #000; stroke-width: 1; opacity: 1;"></line><line transform="translate(273.5,0)" x2="0" y2="6" style="fill: none; stroke: #000; stroke-width: 1; opacity: 1;"></line><line transform="translate(294.5,0)" x2="0" y2="6" style="fill: none; stroke: #000; stroke-width: 1; opacity: 1;"></line><line transform="translate(315.5,0)" x2="0" y2="6" style="fill: none; stroke: #000; stroke-width: 1; opacity: 1;"></line><line transform="translate(336.5,0)" x2="0" y2="6" style="fill: none; stroke: #000; stroke-width: 1; opacity: 1;"></line><line transform="translate(357.5,0)" x2="0" y2="6" style="fill: none; stroke: #000; stroke-width: 1; opacity: 1;"></line><line transform="translate(378.5,0)" x2="0" y2="6" style="fill: none; stroke: #000; stroke-width: 1; opacity: 1;"></line><line transform="translate(399.5,0)" x2="0" y2="6" style="fill: none; stroke: #000; stroke-width: 1; opacity: 1;"></line><line transform="translate(420.5,0)" x2="0" y2="6" style="fill: none; stroke: #000; stroke-width: 1; opacity: 1;"></line><line transform="translate(441.5,0)" x2="0" y2="6" style="fill: none; stroke: #000; stroke-width: 1; opacity: 1;"></line><line transform="translate(462.5,0)" x2="0" y2="6" style="fill: none; stroke: #000; stroke-width: 1; opacity: 1;"></line><line transform="translate(483.5,0)" x2="0" y2="6" style="fill: none; stroke: #000; stroke-width: 1; opacity: 1;"></line><line transform="translate(504.5,0)" x2="0" y2="6" style="fill: none; stroke: #000; stroke-width: 1; opacity: 1;"></line><line transform="translate(525.5,0)" x2="0" y2="6" style="fill: none; stroke: #000; stroke-width: 1; opacity: 1;"></line><line transform="translate(546.5,0)" x2="0" y2="6" style="fill: none; stroke: #000; stroke-width: 1; opacity: 1;"></line><line transform="translate(567.5,0)" x2="0" y2="6" style="fill: none; stroke: #000; stroke-width: 1; opacity: 1;"></line><line transform="translate(588.5,0)" x2="0" y2="6" style="fill: none; stroke: #000; stroke-width: 1; opacity: 1;"></line><line transform="translate(609.5,0)" x2="0" y2="6" style="fill: none; stroke: #000; stroke-width: 1; opacity: 1;"></line><line transform="translate(630.5,0)" x2="0" y2="6" style="fill: none; stroke: #000; stroke-width: 1; opacity: 1;"></line></g><g class="mark-rule" style="pointer-events: none;"></g><g class="mark-text"><text text-anchor="end" transform="translate(21.5,9) rotate(270) translate(0,3)" style="font: 11px sans-serif; fill: #000; opacity: 1;">V0</text><text text-anchor="end" transform="translate(42.5,9) rotate(270) translate(0,3)" style="font: 11px sans-serif; fill: #000; opacity: 1;">V1</text><text text-anchor="end" transform="translate(63.5,9) rotate(270) translate(0,3)" style="font: 11px sans-serif; fill: #000; opacity: 1;">V10</text><text text-anchor="end" transform="translate(84.5,9) rotate(270) translate(0,3)" style="font: 11px sans-serif; fill: #000; opacity: 1;">V11</text><text text-anchor="end" transform="translate(105.5,9) rotate(270) translate(0,3)" style="font: 11px sans-serif; fill: #000; opacity: 1;">V12</text><text text-anchor="end" transform="translate(126.5,9) rotate(270) translate(0,3)" style="font: 11px sans-serif; fill: #000; opacity: 1;">V13</text><text text-anchor="end" transform="translate(147.5,9) rotate(270) translate(0,3)" style="font: 11px sans-serif; fill: #000; opacity: 1;">V14</text><text text-anchor="end" transform="translate(168.5,9) rotate(270) translate(0,3)" style="font: 11px sans-serif; fill: #000; opacity: 1;">V15</text><text text-anchor="end" transform="translate(189.5,9) rotate(270) translate(0,3)" style="font: 11px sans-serif; fill: #000; opacity: 1;">V16</text><text text-anchor="end" transform="translate(210.5,9) rotate(270) translate(0,3)" style="font: 11px sans-serif; fill: #000; opacity: 1;">V17</text><text text-anchor="end" transform="translate(231.5,9) rotate(270) translate(0,3)" style="font: 11px sans-serif; fill: #000; opacity: 1;">V18</text><text text-anchor="end" transform="translate(252.5,9) rotate(270) translate(0,3)" style="font: 11px sans-serif; fill: #000; opacity: 1;">V19</text><text text-anchor="end" transform="translate(273.5,9) rotate(270) translate(0,3)" style="font: 11px sans-serif; fill: #000; opacity: 1;">V2</text><text text-anchor="end" transform="translate(294.5,9) rotate(270) translate(0,3)" style="font: 11px sans-serif; fill: #000; opacity: 1;">V20</text><text text-anchor="end" transform="translate(315.5,9) rotate(270) translate(0,3)" style="font: 11px sans-serif; fill: #000; opacity: 1;">V21</text><text text-anchor="end" transform="translate(336.5,9) rotate(270) translate(0,3)" style="font: 11px sans-serif; fill: #000; opacity: 1;">V22</text><text text-anchor="end" transform="translate(357.5,9) rotate(270) translate(0,3)" style="font: 11px sans-serif; fill: #000; opacity: 1;">V23</text><text text-anchor="end" transform="translate(378.5,9) rotate(270) translate(0,3)" style="font: 11px sans-serif; fill: #000; opacity: 1;">V24</text><text text-anchor="end" transform="translate(399.5,9) rotate(270) translate(0,3)" style="font: 11px sans-serif; fill: #000; opacity: 1;">V25</text><text text-anchor="end" transform="translate(420.5,9) rotate(270) translate(0,3)" style="font: 11px sans-serif; fill: #000; opacity: 1;">V26</text><text text-anchor="end" transform="translate(441.5,9) rotate(270) translate(0,3)" style="font: 11px sans-serif; fill: #000; opacity: 1;">V27</text><text text-anchor="end" transform="translate(462.5,9) rotate(270) translate(0,3)" style="font: 11px sans-serif; fill: #000; opacity: 1;">V3</text><text text-anchor="end" transform="translate(483.5,9) rotate(270) translate(0,3)" style="font: 11px sans-serif; fill: #000; opacity: 1;">V36</text><text text-anchor="end" transform="translate(504.5,9) rotate(270) translate(0,3)" style="font: 11px sans-serif; fill: #000; opacity: 1;">V37</text><text text-anchor="end" transform="translate(525.5,9) rotate(270) translate(0,3)" style="font: 11px sans-serif; fill: #000; opacity: 1;">V4</text><text text-anchor="end" transform="translate(546.5,9) rotate(270) translate(0,3)" style="font: 11px sans-serif; fill: #000; opacity: 1;">V5</text><text text-anchor="end" transform="translate(567.5,9) rotate(270) translate(0,3)" style="font: 11px sans-serif; fill: #000; opacity: 1;">V6</text><text text-anchor="end" transform="translate(588.5,9) rotate(270) translate(0,3)" style="font: 11px sans-serif; fill: #000; opacity: 1;">V7</text><text text-anchor="end" transform="translate(609.5,9) rotate(270) translate(0,3)" style="font: 11px sans-serif; fill: #000; opacity: 1;">V8</text><text text-anchor="end" transform="translate(630.5,9) rotate(270) translate(0,3)" style="font: 11px sans-serif; fill: #000; opacity: 1;">V9</text></g><g class="mark-path" style="pointer-events: none;"><path transform="translate(0.5,0.5)" d="M0,6V0H651V6" style="fill: none; stroke: #000; stroke-width: 1;"></path></g><g class="mark-text"><text text-anchor="middle" transform="translate(325,43)" style="font: bold 11px sans-serif; fill: #000;">name</text></g></g></g><g class="mark-group"><g transform="translate(671.5,0.5)"><rect class="background" width="175" height="107" style="pointer-events: none; fill: none;"></rect><g class="mark-text" style="pointer-events: none;"><text text-anchor="start" transform="translate(3,13)" style="font: bold 11px sans-serif; fill: #000; opacity: 1;">app</text></g><g class="mark-symbol" style="pointer-events: none;"><path transform="translate(7.5,23)" d="M0,3.989422804014327A3.989422804014327,3.989422804014327 0 1,1 0,-3.989422804014327A3.989422804014327,3.989422804014327 0 1,1 0,3.989422804014327Z" style="fill: #1f77b4; stroke: #888; stroke-width: 0; opacity: 0.7;"></path><path transform="translate(7.5,38)" d="M0,3.989422804014327A3.989422804014327,3.989422804014327 0 1,1 0,-3.989422804014327A3.989422804014327,3.989422804014327 0 1,1 0,3.989422804014327Z" style="fill: #ff7f0e; stroke: #888; stroke-width: 0; opacity: 0.7;"></path><path transform="translate(7.5,53)" d="M0,3.989422804014327A3.989422804014327,3.989422804014327 0 1,1 0,-3.989422804014327A3.989422804014327,3.989422804014327 0 1,1 0,3.989422804014327Z" style="fill: #2ca02c; stroke: #888; stroke-width: 0; opacity: 0.7;"></path><path transform="translate(7.5,68)" d="M0,3.989422804014327A3.989422804014327,3.989422804014327 0 1,1 0,-3.989422804014327A3.989422804014327,3.989422804014327 0 1,1 0,3.989422804014327Z" style="fill: #d62728; stroke: #888; stroke-width: 0; opacity: 0.7;"></path><path transform="translate(7.5,83)" d="M0,3.989422804014327A3.989422804014327,3.989422804014327 0 1,1 0,-3.989422804014327A3.989422804014327,3.989422804014327 0 1,1 0,3.989422804014327Z" style="fill: #9467bd; stroke: #888; stroke-width: 0; opacity: 0.7;"></path><path transform="translate(7.5,98)" d="M0,3.989422804014327A3.989422804014327,3.989422804014327 0 1,1 0,-3.989422804014327A3.989422804014327,3.989422804014327 0 1,1 0,3.989422804014327Z" style="fill: #8c564b; stroke: #888; stroke-width: 0; opacity: 0.7;"></path></g><g class="mark-text" style="pointer-events: none;"><text text-anchor="start" transform="translate(16,26)" style="font: 10px sans-serif; fill: #000; opacity: 1;">CIFAR-10, 20 Deep Resnet</text><text text-anchor="start" transform="translate(16,41)" style="font: 10px sans-serif; fill: #000; opacity: 1;">CIFAR-10, 3 Deep LeNet</text><text text-anchor="start" transform="translate(16,56)" style="font: 10px sans-serif; fill: #000; opacity: 1;">CIFAR-10, 44 Deep Resnet</text><text text-anchor="start" transform="translate(16,71)" style="font: 10px sans-serif; fill: #000; opacity: 1;">Middlebury, Farneback optical flow</text><text text-anchor="start" transform="translate(16,86)" style="font: 10px sans-serif; fill: #000; opacity: 1;">Middlebury, Stereo SGBM</text><text text-anchor="start" transform="translate(16,101)" style="font: 10px sans-serif; fill: #000; opacity: 1;">VOC-2007, Faster RCNN</text></g></g></g></g></g></g></g></g></svg>